<svg version="1.1" viewBox="0.0 0.0 256.5564304461942 217.1496062992126" fill="none" stroke="none" stroke-linecap="square" stroke-miterlimit="10" xmlns:xlink="http://www.w3.org/1999/xlink" xmlns="http://www.w3.org/2000/svg"><clipPath id="p.0"><path d="m0 0l256.55643 0l0 217.14961l-256.55643 0l0 -217.14961z" clip-rule="nonzero"/></clipPath><g clip-path="url(#p.0)"><path fill="#000000" fill-opacity="0.0" d="m0 0l256.55643 0l0 217.14961l-256.55643 0z" fill-rule="evenodd"/><path fill="#000000" fill-opacity="0.0" d="m4.065725 -30.749254l259.937 0l0 174.51968l-259.937 0z" fill-rule="evenodd"/><path fill="#000000" d="m84.37823 97.31825q0.5 1.375 0.53125 2.21875q0.03125 0.84375 -0.46875 1.28125q-0.5 0.4375 -1.65625 0.5625q-1.15625 0.125 -3.09375 0.125q-1.9375 0 -3.09375 -0.09375q-1.15625 -0.09375 -1.75 -0.3125q-0.59375 -0.21875 -0.875 -0.59375q-0.28125 -0.375 -0.53125 -0.9375l-6.9375 -19.6875l-33.625004 0l-6.624998 19.4375q-0.1875 0.5625 -0.5 0.96875q-0.3125 0.40625 -0.90625 0.6875q-0.59375 0.28125 -1.6875 0.40625q-1.09375 0.125 -2.84375 0.125q-1.8125 0 -2.96875 -0.15625q-1.15625 -0.15625 -1.625 -0.59375q-0.46875 -0.4375 -0.4375 -1.28125q0.03125 -0.84375 0.53125 -2.21875l27.124998 -75.125q0.25 -0.6875 0.65625 -1.125q0.40625 -0.4375 1.1875 -0.6875q0.78125 -0.25 2.0 -0.34375q1.21875 -0.09375 3.09375 -0.09375q2.0 0 3.3125 0.09375q1.3125 0.09375 2.125 0.34375q0.8125 0.25 1.25 0.71875q0.4375 0.46875 0.6875 1.15625l27.125004 75.125zm-34.812504 -66.3125l-0.0625 0l-13.9375 40.3125l28.125 0l-14.125 -40.3125zm57.437504 68.5625q0 0.5 -0.25 0.84375q-0.25 0.34375 -0.8125 0.59375q-0.5625 0.25 -1.5625 0.375q-1.0 0.125 -2.5625 0.125q-1.5 0 -2.5 -0.125q-1.0 -0.125 -1.59375 -0.375q-0.59375 -0.25 -0.8125 -0.59375q-0.21875 -0.34375 -0.21875 -0.84375l0 -83.5q0 -0.49999905 0.21875 -0.87499905q0.21875 -0.375 0.8125 -0.625q0.59375 -0.25 1.59375 -0.375q1.0 -0.125 2.5 -0.125q1.5625 0 2.5625 0.125q1.0 0.125 1.5625 0.375q0.5625 0.25 0.8125 0.625q0.25 0.375 0.25 0.87499905l0 83.5zm66.06249 -53.6875q0 2.1875 -0.59375 3.15625q-0.59375 0.96875 -1.53125 0.96875l-8.0625 0q2.1875 2.25 3.0625 4.96875q0.875 2.71875 0.875 5.65625q0 4.875 -1.5625 8.625q-1.5625 3.75 -4.46875 6.34375q-2.90625 2.59375 -6.90625 3.96875q-4.0 1.375 -8.875 1.375q-3.4375 0 -6.53125 -0.90625q-3.09375 -0.90625 -4.78125 -2.28125q-1.125 1.125 -1.84375 2.5625q-0.71875 1.4375 -0.71875 3.3125q0 2.1875 2.03125 3.625q2.03125 1.4375 5.40625 1.5625l14.6875 0.625q4.1875 0.125 7.6875 1.15625q3.5 1.03125 6.0625 2.9375q2.5625 1.90625 4.0 4.6875q1.4375 2.78125 1.4375 6.46875q0 3.875 -1.625 7.375q-1.625 3.5 -4.96875 6.15625q-3.34375 2.65625 -8.53125 4.1875q-5.1875 1.53125 -12.25 1.53125q-6.8125 0 -11.59375 -1.15625q-4.78125 -1.15625 -7.8437424 -3.15625q-3.0625 -2.0 -4.4375 -4.78125q-1.375 -2.78125 -1.375 -6.03125q0 -2.0625 0.5 -4.0q0.5 -1.9375 1.53125 -3.6875q1.03125 -1.75 2.5625 -3.34375q1.53125 -1.59375 3.53125 -3.15625q-3.0625 -1.5625 -4.53125 -3.9375q-1.46875 -2.375 -1.46875 -5.125q0 -3.8125 1.5625 -6.8125q1.5625 -3.0 3.875 -5.375q-1.9375 -2.3125 -3.0625 -5.21875q-1.125 -2.90625 -1.125 -7.03125q0 -4.8125 1.625 -8.625q1.625 -3.8125 4.4999924 -6.4375q2.875 -2.625 6.90625 -4.03125q4.03125 -1.40625 8.78125 -1.40625q2.5625 0 4.78125 0.28125q2.21875 0.28125 4.15625 0.78125l17.0 0q1.0625 0 1.59375 1.03125q0.53125 1.03125 0.53125 3.15625zm-16.125 14.8125q0 -5.75 -3.15625 -8.96875q-3.15625 -3.21875 -8.96875 -3.21875q-3.0 0 -5.21875 1.0q-2.21875 1.0 -3.6875 2.75q-1.46875 1.75 -2.1875 4.03125q-0.71875 2.28125 -0.71875 4.78125q0 5.5625 3.15625 8.75q3.15625 3.1875 8.84375 3.1875q3.0625 0 5.3125 -0.96875q2.25 -0.96875 3.71875 -2.6875q1.46875 -1.71875 2.1875 -3.96875q0.71875 -2.25 0.71875 -4.6875zm5.1875 44.5625q0 -3.625 -2.96875 -5.59375q-2.96875 -1.96875 -8.03125 -2.09375l-14.5625 -0.5q-2.0 1.5625 -3.28125 2.96875q-1.28125 1.40625 -2.03125 2.6875q-0.75 1.28125 -1.03125 2.53125q-0.28125 1.25 -0.28125 2.5625q0 4.0625 4.125 6.15625q4.125 2.09375 11.5 2.09375q4.6875 0 7.84375 -0.90625q3.15625 -0.90625 5.09375 -2.40625q1.9375 -1.5 2.78125 -3.4375q0.84375 -1.9375 0.84375 -4.0625zm75.625 -34.4375q0 6.875 -1.8125 12.65625q-1.8125 5.78125 -5.40625 9.96875q-3.59375 4.1875 -9.0 6.53125q-5.40625 2.34375 -12.53125 2.34375q-6.9375 0 -12.09375 -2.0625q-5.15625 -2.0625 -8.59375 -6.0q-3.4375 -3.9375 -5.125 -9.5625q-1.6875 -5.625 -1.6875 -12.75q0 -6.875 1.78125 -12.65625q1.78125 -5.78125 5.375 -9.96875q3.59375 -4.1875 8.96875 -6.5q5.375 -2.3125 12.5625 -2.3125q6.9375 0 12.09375 2.0625q5.15625 2.0625 8.59375 6.0q3.4375 3.9375 5.15625 9.5625q1.71875 5.625 1.71875 12.6875zm-10.875 0.6875q0 -4.5625 -0.84375 -8.625q-0.84375 -4.0625 -2.78125 -7.125q-1.9375 -3.0625 -5.25 -4.84375q-3.3125 -1.78125 -8.25 -1.78125q-4.5625 0 -7.84375 1.625q-3.28125 1.625 -5.40625 4.59375q-2.125 2.96875 -3.15625 7.03125q-1.03125 4.0625 -1.03125 8.875q0 4.625 0.84375 8.6875q0.84375 4.0625 2.8125 7.09375q1.96875 3.03125 5.28125 4.8125q3.3125 1.78125 8.25 1.78125q4.5 0 7.8125 -1.625q3.3125 -1.625 5.4375 -4.5625q2.125 -2.9375 3.125 -7.0q1.0 -4.0625 1.0 -8.9375z" fill-rule="nonzero"/><path fill="#000000" fill-opacity="0.0" d="m9.75002 58.19328l247.46458 0l0 174.51968l-247.46458 0z" fill-rule="evenodd"/><path fill="#000000" d="m83.50002 178.63579q0 1.0 -0.0625 1.75q-0.0625 0.75 -0.21875 1.3125q-0.15625 0.5625 -0.40625 1.0q-0.25 0.4375 -0.875 1.0625q-0.625 0.625 -2.625 1.90625q-2.0 1.28125 -4.96875 2.5q-2.96875 1.21875 -6.8125 2.0625q-3.8437538 0.84375 -8.406254 0.84375q-7.875 0 -14.21875 -2.625q-6.34375 -2.625 -10.8125 -7.75q-4.468748 -5.125 -6.874998 -12.65625q-2.40625 -7.53125 -2.40625 -17.34375q0 -10.0625 2.59375 -17.9375q2.59375 -7.875 7.281248 -13.34375q4.6875 -5.46875 11.21875 -8.34375q6.53125 -2.875 14.46875 -2.875q3.5 0 6.812504 0.65625q3.3125 0.65625 6.125 1.65625q2.8125 1.0 5.0 2.3125q2.1875 1.3125 3.03125 2.15625q0.84375 0.84375 1.09375 1.28125q0.25 0.4375 0.40625 1.03125q0.15625 0.59375 0.25 1.40625q0.09375 0.8125 0.09375 1.9375q0 1.25 -0.125 2.125q-0.125 0.875 -0.375 1.46875q-0.25 0.59375 -0.59375 0.875q-0.34375 0.28125 -0.84375 0.28125q-0.875 0 -2.4375 -1.21875q-1.5625 -1.21875 -4.03125 -2.6875q-2.46875 -1.46875 -6.0 -2.6875q-3.53125 -1.21875 -8.468754 -1.21875q-5.375 0 -9.78125 2.15625q-4.40625 2.15625 -7.53125 6.34375q-3.125 4.1875 -4.84375 10.21875q-1.71875 6.03125 -1.71875 13.78125q0 7.6875 1.65625 13.59375q1.65625 5.90625 4.75 9.875q3.09375 3.96875 7.59375 6.0q4.5 2.03125 10.1875 2.03125q4.812504 0 8.406254 -1.1875q3.59375 -1.1875 6.125 -2.65625q2.53125 -1.46875 4.15625 -2.65625q1.625 -1.1875 2.5625 -1.1875q0.4375 0 0.75 0.1875q0.3125 0.1875 0.5 0.71875q0.1875 0.53125 0.28125 1.46875q0.09375 0.9375 0.09375 2.375zm23.375 9.875q0 0.5 -0.25 0.84375q-0.25 0.34375 -0.8125 0.59375q-0.5625 0.25 -1.5625 0.375q-1.0 0.125 -2.5625 0.125q-1.5 0 -2.5 -0.125q-1.0 -0.125 -1.59375 -0.375q-0.59375 -0.25 -0.8125 -0.59375q-0.21875 -0.34375 -0.21875 -0.84375l0 -83.5q0 -0.5 0.21875 -0.875q0.21875 -0.375 0.8125 -0.625q0.59375 -0.25 1.59375 -0.375q1.0 -0.125 2.5 -0.125q1.5625 0 2.5625 0.125q1.0 0.125 1.5625 0.375q0.5625 0.25 0.8125 0.625q0.25 0.375 0.25 0.875l0 83.5zm61.437492 0.0625q0 0.75 -0.5 1.125q-0.5 0.375 -1.375 0.5625q-0.875 0.1875 -2.5625 0.1875q-1.625 0 -2.59375 -0.1875q-0.96875 -0.1875 -1.40625 -0.5625q-0.4375 -0.375 -0.4375 -1.125l0 -5.625q-3.6875 3.9375 -8.21875 6.125q-4.53125 2.1875 -9.59375 2.1875q-4.4375 0 -8.03125 -1.15625q-3.59375 -1.15625 -6.1249924 -3.34375q-2.53125 -2.1875 -3.9375 -5.375q-1.40625 -3.1875 -1.40625 -7.25q0 -4.75 1.9375 -8.25q1.9375 -3.5 5.5624924 -5.8125q3.625 -2.3125 8.875 -3.46875q5.25 -1.15625 11.8125 -1.15625l7.75 0l0 -4.375q0 -3.25 -0.6875 -5.75q-0.6875 -2.5 -2.21875 -4.15625q-1.53125 -1.65625 -3.96875 -2.5q-2.4375 -0.84375 -6.0 -0.84375q-3.8125 0 -6.84375 0.90625q-3.03125 0.90625 -5.3125 2.0q-2.28125 1.09375 -3.8125 2.0q-1.5312424 0.90625 -2.2812424 0.90625q-0.5 0 -0.875 -0.25q-0.375 -0.25 -0.65625 -0.75q-0.28125 -0.5 -0.40625 -1.28125q-0.125 -0.78125 -0.125 -1.71875q0 -1.5625 0.21875 -2.46875q0.21875 -0.90625 1.0625 -1.71875q0.84375 -0.8125 2.9062424 -1.90625q2.0625 -1.09375 4.75 -2.0q2.6875 -0.90625 5.875 -1.5q3.1875 -0.59375 6.4375 -0.59375q6.0625 0 10.3125 1.375q4.25 1.375 6.875 4.03125q2.625 2.65625 3.8125 6.59375q1.1875 3.9375 1.1875 9.1875l0 37.9375zm-10.25 -25.6875l-8.8125 0q-4.25 0 -7.375 0.71875q-3.125 0.71875 -5.1875 2.125q-2.0625 1.40625 -3.03125 3.375q-0.96875 1.96875 -0.96875 4.53125q0 4.375 2.78125 6.96875q2.78125 2.59375 7.78125 2.59375q4.0625 0 7.53125 -2.0625q3.46875 -2.0625 7.28125 -6.3125l0 -11.9375zm77.625 25.625q0 0.5 -0.25 0.84375q-0.25 0.34375 -0.8125 0.59375q-0.5625 0.25 -1.5625 0.375q-1.0 0.125 -2.5 0.125q-1.5625 0 -2.5625 -0.125q-1.0 -0.125 -1.5625 -0.375q-0.5625 -0.25 -0.8125 -0.59375q-0.25 -0.34375 -0.25 -0.84375l0 -32.9375q0 -4.8125 -0.75 -7.75q-0.75 -2.9375 -2.1875 -5.0625q-1.4375 -2.125 -3.71875 -3.25q-2.28125 -1.125 -5.28125 -1.125q-3.875 0 -7.75 2.75q-3.875 2.75 -8.125 8.0625l0 39.3125q0 0.5 -0.25 0.84375q-0.25 0.34375 -0.8125 0.59375q-0.5625 0.25 -1.5625 0.375q-1.0 0.125 -2.5625 0.125q-1.5 0 -2.5 -0.125q-1.0 -0.125 -1.59375 -0.375q-0.59375 -0.25 -0.8125 -0.59375q-0.21875 -0.34375 -0.21875 -0.84375l0 -56.25q0 -0.5 0.1875 -0.84375q0.1875 -0.34375 0.75 -0.625q0.5625 -0.28125 1.4375 -0.375q0.875 -0.09375 2.3125 -0.09375q1.375 0 2.28125 0.09375q0.90625 0.09375 1.40625 0.375q0.5 0.28125 0.71875 0.625q0.21875 0.34375 0.21875 0.84375l0 7.4375q4.75 -5.3125 9.46875 -7.78125q4.71875 -2.46875 9.53125 -2.46875q5.625 0 9.46875 1.90625q3.84375 1.90625 6.21875 5.09375q2.375 3.1875 3.40625 7.46875q1.03125 4.28125 1.03125 10.28125l0 34.3125z" fill-rule="nonzero"/><path fill="#00bfa6" d="m96.71651 12.10088l11.464569 0l0 179.77953l-11.464569 0z" fill-rule="evenodd"/></g></svg>